<?xml version="1.0" encoding="UTF-8"?>
<svg width="24px" height="24px" viewBox="0 0 24 24" version="1.1" xmlns="http://www.w3.org/2000/svg">
    <path d="M22,12 C22,6.4771525 17.5228475,2 12,2 C6.4771525,2 2,6.4771525 2,12 C2,16.9541395 5.61571118,21.0815254 10.4375,21.8765625 L10.4375,14.890625 L7.8984375,14.890625 L7.8984375,12 L10.4375,12 L10.4375,9.796875 C10.4375,7.290625 11.9304688,5.90625 14.2146437,5.90625 C15.3084937,5.90625 16.453125,6.1015625 16.453125,6.1015625 L16.453125,8.5625 L15.1921875,8.5625 C13.9499937,8.5625 13.5625,9.33334375 13.5625,10.124375 L13.5625,12 L16.3359375,12 L15.8925781,14.890625 L13.5625,14.890625 L13.5625,21.8765625 C18.3842888,21.0815254 22,16.9541395 22,12" fill="#FFFFFF"></path>
</svg>