<?xml version="1.0" encoding="UTF-8"?>
<svg width="24px" height="24px" viewBox="0 0 24 24" version="1.1" xmlns="http://www.w3.org/2000/svg">
    <path d="M12,4.62244898 C14.403973,4.62244898 14.6877551,4.63265306 15.6367347,4.67346939 C16.5142857,4.71428571 16.9877551,4.86122449 17.3061224,4.98775510 C17.7285714,5.15510204 18.0326531,5.35510204 18.3510204,5.67346939 C18.6693878,5.99183673 18.8693878,6.29591837 19.0367347,6.71836735 C19.1632653,7.03673469 19.3102041,7.51020408 19.3510204,8.38775510 C19.3918367,9.33673469 19.4020408,9.62040816 19.4020408,12.0244898 C19.4020408,14.4285714 19.3918367,14.7122449 19.3510204,15.6612245 C19.3102041,16.5387755 19.1632653,17.0122449 19.0367347,17.3306122 C18.8693878,17.7530612 18.6693878,18.0571429 18.3510204,18.3755102 C18.0326531,18.6938776 17.7285714,18.8938776 17.3061224,19.0612245 C16.9877551,19.1877551 16.5142857,19.3346939 15.6367347,19.3755102 C14.6877551,19.4163265 14.4040816,19.4265306 12,19.4265306 C9.59591837,19.4265306 9.31224490,19.4163265 8.36326531,19.3755102 C7.48571429,19.3346939 7.01224490,19.1877551 6.69387755,19.0612245 C6.27142857,18.8938776 5.96734694,18.6938776 5.64897959,18.3755102 C5.33061224,18.0571429 5.13061224,17.7530612 4.96326531,17.3306122 C4.83673469,17.0122449 4.68979592,16.5387755 4.64897959,15.6612245 C4.60816327,14.7122449 4.59795918,14.4285714 4.59795918,12.0244898 C4.59795918,9.62040816 4.60816327,9.33673469 4.64897959,8.38775510 C4.68979592,7.51020408 4.83673469,7.03673469 4.96326531,6.71836735 C5.13061224,6.29591837 5.33061224,5.99183673 5.64897959,5.67346939 C5.96734694,5.35510204 6.27142857,5.15510204 6.69387755,4.98775510 C7.01224490,4.86122449 7.48571429,4.71428571 8.36326531,4.67346939 C9.31224490,4.63265306 9.59591837,4.62244898 12,4.62244898 M12,3 C9.55102041,3 9.24693878,3.01020408 8.28775510,3.05102041 C7.33877551,3.09183673 6.67346939,3.24897959 6.09183673,3.47244898 C5.48979592,3.70612245 4.98775510,4.01020408 4.48571429,4.51224490 C3.98367347,5.01428571 3.67959184,5.51632653 3.44591837,6.11836735 C3.22244898,6.70000000 3.06530612,7.36530612 3.02448980,8.31428571 C2.98367347,9.27346939 2.97346939,9.57755102 2.97346939,12.0265306 C2.97346939,14.4755102 2.98367347,14.7795918 3.02448980,15.7387755 C3.06530612,16.6877551 3.22244898,17.3530612 3.44591837,17.9346939 C3.67959184,18.5367347 3.98367347,19.0387755 4.48571429,19.5408163 C4.98775510,20.0428571 5.48979592,20.3469388 6.09183673,20.5806122 C6.67346939,20.8040816 7.33877551,20.9612245 8.28775510,21.0020408 C9.24693878,21.0428571 9.55102041,21.0530612 12,21.0530612 C14.4489796,21.0530612 14.7530612,21.0428571 15.7122449,21.0020408 C16.6612245,20.9612245 17.3265306,20.8040816 17.9081633,20.5806122 C18.5102041,20.3469388 19.0122449,20.0428571 19.5142857,19.5408163 C20.0163265,19.0387755 20.3204082,18.5367347 20.5540816,17.9346939 C20.7775510,17.3530612 20.9346939,16.6877551 20.9755102,15.7387755 C21.0163265,14.7795918 21.0265306,14.4755102 21.0265306,12.0265306 C21.0265306,9.57755102 21.0163265,9.27346939 20.9755102,8.31428571 C20.9346939,7.36530612 20.7775510,6.70000000 20.5540816,6.11836735 C20.3204082,5.51632653 20.0163265,5.01428571 19.5142857,4.51224490 C19.0122449,4.01020408 18.5102041,3.70612245 17.9081633,3.47244898 C17.3265306,3.24897959 16.6612245,3.09183673 15.7122449,3.05102041 C14.7530612,3.01020408 14.4489796,3 12,3" fill="#FFFFFF"></path>
    <path d="M12,7.37755102 C9.44897959,7.37755102 7.37755102,9.44897959 7.37755102,12 C7.37755102,14.5510204 9.44897959,16.6224490 12,16.6224490 C14.5510204,16.6224490 16.6224490,14.5510204 16.6224490,12 C16.6224490,9.44897959 14.5510204,7.37755102 12,7.37755102 M12,15 C10.3444898,15 9,13.6555102 9,12 C9,10.3444898 10.3444898,9 12,9 C13.6555102,9 15,10.3444898 15,12 C15,13.6555102 13.6555102,15 12,15" fill="#FFFFFF"></path>
    <path d="M17.9183673,7.19591837 C17.9183673,7.79795918 17.4306122,8.28571429 16.8285714,8.28571429 C16.2265306,8.28571429 15.7387755,7.79795918 15.7387755,7.19591837 C15.7387755,6.59387755 16.2265306,6.10612245 16.8285714,6.10612245 C17.4306122,6.10612245 17.9183673,6.59387755 17.9183673,7.19591837" fill="#FFFFFF"></path>
</svg>