<?xml version="1.0" encoding="UTF-8"?>
<svg width="24px" height="24px" viewBox="0 0 24 24" version="1.1" xmlns="http://www.w3.org/2000/svg">
    <path d="M19,3 C19.5522847,3 20,3.44771525 20,4 L20,20 C20,20.5522847 19.5522847,21 19,21 L5,21 C4.44771525,21 4,20.5522847 4,20 L4,4 C4,3.44771525 4.44771525,3 5,3 L19,3 Z M18,19 L18,13.4765625 C18,11.9765625 17.3796875,10.890625 15.9953125,10.890625 C14.6953125,10.890625 14,11.9765625 14,13.4765625 L14,19 L12,19 L12,9 L14,9 L14,10.0937499 C14.45,9.375 15.4609375,8.71875 16.8453125,8.71875 C19.1484375,8.71875 20,10.3515625 20,12.8671875 L20,19 L18,19 Z M6.73223305,19 L8.73223305,19 L8.73223305,9 L6.73223305,9 L6.73223305,19 Z M7.73223305,7.73223305 C6.96966991,7.73223305 6.35355339,7.11611652 6.35355339,6.35355339 C6.35355339,5.59099026 6.96966991,4.97487373 7.73223305,4.97487373 C8.49479618,4.97487373 9.11091271,5.59099026 9.11091271,6.35355339 C9.11091271,7.11611652 8.49479618,7.73223305 7.73223305,7.73223305 Z" fill="#FFFFFF"></path>
</svg>