<?xml version="1.0" encoding="UTF-8"?>
<svg width="24px" height="24px" viewBox="0 0 24 24" version="1.1" xmlns="http://www.w3.org/2000/svg">
    <path d="M23,5.89071038 C22.2645334,6.21530612 21.4730259,6.43241665 20.6432798,6.52982677 C21.4904085,6.02976725 22.1409271,5.23856307 22.4472342,4.29559936 C21.6537467,4.75736906 20.7767571,5.09192206 19.8407089,5.27403894 C19.0935803,4.47088355 18.0270814,4 16.8461547,4 C14.5811476,4 12.7443609,5.83678669 12.7443609,8.10179383 C12.7443609,8.42638957 12.7803895,8.73903409 12.8524467,9.03972739 C9.43849634,8.87146172 6.41618186,7.23505546 4.39241117,4.75376791 C4.03585046,5.36667815 3.83375235,6.02976725 3.83375235,6.74972551 C3.83375235,8.09819268 4.56171633,9.29601396 5.66226583,10.0439734 C4.98969613,10.0439734 4.35316499,9.85890532 3.79771378,9.5703129 L3.79771378,9.60951865 C3.79771378,11.6112849 5.20449499,13.2836923 7.0952888,13.6623002 C6.37534368,13.8544681 5.61935684,13.8724693 4.89941172,13.7163002 C5.40747296,15.3527063 6.93473026,16.5325264 8.72553981,16.5685379 C7.2942968,17.6570862 5.5173277,18.2917979 3.5855857,18.2917979 C3.24704642,18.2917979 2.92639903,18.2737967 2.60575164,18.2377852 C4.4145898,19.3803447 6.55014669,20.0330576 8.83157935,20.0330576 C16.8461547,20.0330576 21.2442406,13.3377052 21.2442406,7.52379755 L21.2442406,7.00177681 C22.0557481,6.42638957 22.7657121,5.71003245 23.3291919,4.88891553 L23,5.89071038 Z" fill="#FFFFFF"></path>
</svg>