<?xml version="1.0" encoding="UTF-8"?>
<svg width="24px" height="24px" viewBox="0 0 24 24" version="1.1" xmlns="http://www.w3.org/2000/svg">
    <path d="M23.4955479,7.32427374 C23.3185383,6.71936925 22.9856212,6.17573635 22.5313066,5.74478503 C22.0769919,5.31383372 21.5149547,5.00776918 20.8974402,4.84979351 C19.1198166,4.40625 12,4.40625 12,4.40625 C12,4.40625 4.88018344,4.40625 3.10255984,4.86458333 C2.48504534,5.022559 1.92300807,5.32862355 1.46869341,5.75957486 C1.01437876,6.19052618 0.681461715,6.73415908 0.504452062,7.33906357 C0.0702582923,9.06508144 -0.140186869,10.8452208 -0.119791667,12.6302083 C-0.141390705,14.4237155 0.0690809513,16.212433 0.504452062,17.9479167 C0.681461715,18.5528212 1.01437876,19.0964541 1.46869341,19.5274054 C1.92300807,19.9583567 2.48504534,20.2644213 3.10255984,20.422397 C4.88018344,20.8802083 12,20.8802083 12,20.8802083 C12,20.8802083 19.1198166,20.8802083 20.8974402,20.422397 C21.5149547,20.2644213 22.0769919,19.9583567 22.5313066,19.5274054 C22.9856212,19.0964541 23.3185383,18.5528212 23.4955479,17.9479167 C23.9239955,16.2304773 24.1334772,14.4590492 24.1197917,12.6822917 C24.1419772,10.8800631 23.9324954,9.08889055 23.4955479,7.36458333 L23.4955479,7.32427374 Z M9.60416667,16.1458333 L9.60416667,9.11458333 L15.8489583,12.6302083 L9.60416667,16.1458333 Z" fill="#FFFFFF"></path>
</svg>